<?xml version="1.0" encoding="utf-8"?>
<!-- Generator: Adobe Illustrator 25.4.1, SVG Export Plug-In . SVG Version: 6.00 Build 0)  -->
<svg version="1.1" id="Capa_1" xmlns="http://www.w3.org/2000/svg" xmlns:xlink="http://www.w3.org/1999/xlink" x="0px" y="0px"
	 viewBox="0 0 305 336" style="enable-background:new 0 0 305 336;" xml:space="preserve">
<style type="text/css">
	.st0{fill:#2F2E41;}
	.st1{fill:#FFFFFF;}
	.st2{fill:#3F3D56;}
	.st3{fill:#5CB8E4;}
	.st4{fill:#E6E6E6;}
	.st5{fill:#CCCCCC;}
	.st6{fill:#F2F2F2;}
</style>
<ellipse class="st0" cx="73.7" cy="331.5" rx="10.9" ry="4.1"/>
<ellipse class="st0" cx="99.9" cy="330.9" rx="10.9" ry="4.1"/>
<ellipse transform="matrix(0.8664 -0.4994 0.4994 0.8664 -112.5243 100.3528)" class="st0" cx="131.2" cy="260.4" rx="21.5" ry="6.8"/>
<ellipse transform="matrix(0.1602 -0.9871 0.9871 0.1602 -201.1774 311.4371)" class="st0" cx="82.4" cy="273.9" rx="43.1" ry="43.1"/>
<rect x="62.8" y="307.7" class="st0" width="13.1" height="23.4"/>
<rect x="89" y="307.7" class="st0" width="13.1" height="23.4"/>
<circle class="st1" cx="83.5" cy="263" r="14.7"/>
<circle class="st2" cx="83.5" cy="263" r="4.9"/>
<path class="st4" d="M40.7,233.9c-3.5-15.6,7.6-31.3,24.8-35.1s33.9,5.7,37.4,21.2s-7.9,21.3-25.1,25.2S44.1,249.5,40.7,233.9z"/>
<ellipse transform="matrix(0.4285 -0.9035 0.9035 0.4285 -210.0736 175.7875)" class="st0" cx="33.9" cy="254" rx="6.8" ry="21.5"/>
<path class="st1" d="M61.3,289.5c0,4.2,10.9,12.5,22.9,12.5s23.3-11.9,23.3-16.1s-11.3,0.8-23.3,0.8S61.3,285.3,61.3,289.5z"/>
<ellipse class="st0" cx="232.6" cy="331.5" rx="10.9" ry="4.1"/>
<ellipse class="st0" cx="206.4" cy="330.9" rx="10.9" ry="4.1"/>
<ellipse transform="matrix(0.4994 -0.8664 0.8664 0.4994 -137.9804 282.0397)" class="st0" cx="175.1" cy="260.4" rx="6.8" ry="21.5"/>
<circle class="st0" cx="223.9" cy="273.9" r="43.1"/>
<rect x="230.4" y="307.7" class="st0" width="13.1" height="23.4"/>
<rect x="204.3" y="307.7" class="st0" width="13.1" height="23.4"/>
<circle class="st1" cx="213.8" cy="263" r="14.7"/>
<ellipse transform="matrix(0.7074 -0.7068 0.7068 0.7074 -123.999 222.5361)" class="st2" cx="206.8" cy="261" rx="4.9" ry="4.9"/>
<path class="st3" d="M228.5,245.2c-17.2-3.8-28.6-9.6-25.1-25.2s20.2-25.1,37.4-21.2s28.3,19.6,24.8,35.1S245.7,249,228.5,245.2z"/>
<ellipse transform="matrix(0.9665 -0.2567 0.2567 0.9665 -64.5816 77.1971)" class="st0" cx="263.4" cy="286" rx="6.8" ry="21.5"/>
<path class="st1" d="M214.1,286.8c-7.9,0-15.3-5-15.3-0.8s7.4,16.1,15.3,16.1s15-8.3,15-12.5S222,286.8,214.1,286.8z"/>
<path class="st3" d="M158.5,202.5h-3.8c-7.1,0-12.9-5.8-12.9-12.9v-3.2c0-8,1.5-14.6,4.5-19.8c3.6-6,7.8-11.7,12.5-16.9
	c3.1-3.2,6-6.6,8.5-10.3c1.8-2.9,2.8-6.2,2.7-9.6c0-8-5.2-11.9-15.9-11.9c-5.9,0.1-11.8,1-17.5,2.6c-7.8,2.2-16-2.3-18.2-10.1
	c-0.4-1.3-0.6-2.7-0.6-4V100c0-5.7,3.3-10.9,8.5-13.3c10-4.3,20.9-6.4,31.8-6.3c11.4,0,21.8,1.9,30.7,5.7c8.9,3.8,16,9.2,21,15.9
	c5,6.7,7.6,14.9,7.5,23.2c0,9-2.5,16.8-7.3,23.2c-4.8,6.4-11.6,13.4-20.4,20.8c-4.6,3.8-9,7.9-13.1,12.3c-2.6,2.9-4.5,6.3-5.4,10.1
	C170.2,198,164.8,202.6,158.5,202.5z"/>
<path class="st3" d="M156.3,263.3h-0.5c-13.2,0-23.9-10.7-23.9-24c0-13.2,10.7-23.9,23.9-23.9h0.5c13.2,0,24,10.7,24,23.9
	C180.3,252.6,169.6,263.3,156.3,263.3C156.4,263.3,156.4,263.3,156.3,263.3z"/>
<path class="st5" d="M312,336H1c-0.6,0-1-0.4-1-1s0.4-1,1-1h311c0.6,0,1,0.4,1,1S312.6,336,312,336z"/>
<path class="st6" d="M215.2,49h-26c-2.8,0-5-2.2-5-5V18c0-2.8,2.2-5,5-5h26c2.8,0,5,2.2,5,5v26C220.2,46.8,217.9,49,215.2,49z
	 M189.2,15c-1.7,0-3,1.3-3,3v26c0,1.7,1.3,3,3,3h26c1.7,0,3-1.3,3-3V18c0-1.7-1.3-3-3-3H189.2z"/>
<path class="st6" d="M199.2,36h-26c-2.8,0-5-2.2-5-5V5c0-2.8,2.2-5,5-5h26c2.8,0,5,2.2,5,5v26C204.2,33.8,201.9,36,199.2,36z
	 M173.2,2c-1.7,0-3,1.3-3,3v26c0,1.7,1.3,3,3,3h26c1.7,0,3-1.3,3-3V5c0-1.7-1.3-3-3-3H173.2z"/>
<circle class="st6" cx="278.4" cy="130" r="6.5"/>
<circle class="st6" cx="61.2" cy="160.2" r="6.5"/>
</svg>
