<svg id="Capa_1" data-name="Capa 1" xmlns="http://www.w3.org/2000/svg" viewBox="0 0 70 71.17"><defs><style>.cls-1{fill:#8758ff;}</style></defs><path class="cls-1" d="M43.16,62h-26a5,5,0,0,1-5-5V31a5,5,0,0,1,5-5h26a5,5,0,0,1,5,5V57A5,5,0,0,1,43.16,62Zm-26-34a3,3,0,0,0-3,3V57a3,3,0,0,0,3,3h26a3,3,0,0,0,3-3V31a3,3,0,0,0-3-3Z"/><path class="cls-1" d="M55.16,45h-26a5,5,0,0,1-5-5V14a5,5,0,0,1,5-5h26a5,5,0,0,1,5,5V40A5,5,0,0,1,55.16,45Zm-26-34a3,3,0,0,0-3,3V40a3,3,0,0,0,3,3h26a3,3,0,0,0,3-3V14a3,3,0,0,0-3-3Z"/></svg>