<svg id="Capa_1" data-name="Capa 1" xmlns="http://www.w3.org/2000/svg" viewBox="0 0 305 336"><defs><style>.cls-1{fill:#2f2e41;}.cls-2{fill:#fff;}.cls-3{fill:#3f3d56;}.cls-4{fill:#8758ff;}.cls-5{fill:#ccc;}.cls-6{fill:#f2f2f2;}</style></defs><ellipse class="cls-1" cx="232.61" cy="331.46" rx="10.9" ry="4.09"/><ellipse class="cls-1" cx="206.44" cy="330.92" rx="10.9" ry="4.09"/><ellipse class="cls-1" cx="175.08" cy="260.42" rx="6.76" ry="21.53" transform="translate(-137.98 282.04) rotate(-60.04)"/><circle class="cls-1" cx="223.89" cy="273.95" r="43.07"/><rect class="cls-1" x="230.43" y="307.75" width="13.08" height="23.44"/><rect class="cls-1" x="204.26" y="307.75" width="13.08" height="23.44"/><circle class="cls-2" cx="213.8" cy="263.04" r="14.72"/><ellipse class="cls-3" cx="206.8" cy="261.04" rx="4.92" ry="4.89" transform="translate(-124 222.54) rotate(-44.97)"/><path class="cls-4" d="M228.52,245.15c-17.19-3.84-28.58-9.58-25.11-25.16s20.23-25.08,37.42-21.24,28.31,19.57,24.83,35.14S245.71,249,228.52,245.15Z"/><ellipse class="cls-1" cx="263.39" cy="285.96" rx="6.76" ry="21.53" transform="translate(-64.58 77.2) rotate(-14.87)"/><path class="cls-2" d="M214.13,286.76c-7.91,0-15.32-5-15.32-.82S206.22,302,214.13,302s15-8.32,15-12.54S222,286.76,214.13,286.76Z"/><path class="cls-4" d="M158.47,202.54h-3.82a12.94,12.94,0,0,1-12.93-12.92v-3.21c0-8,1.51-14.62,4.48-19.8a104.18,104.18,0,0,1,12.55-16.85,74.29,74.29,0,0,0,8.52-10.28,17.29,17.29,0,0,0,2.7-9.56c0-8-5.2-11.86-15.89-11.86a64.91,64.91,0,0,0-17.52,2.63,14.75,14.75,0,0,1-18.23-10.13,15,15,0,0,1-.56-4V100a14.45,14.45,0,0,1,8.53-13.25,78.12,78.12,0,0,1,31.81-6.26c11.44,0,21.78,1.92,30.71,5.71s16,9.16,21,15.93a38.33,38.33,0,0,1,7.53,23.24c0,9-2.45,16.8-7.28,23.25S198.44,162,189.7,169.39a147.38,147.38,0,0,0-13.06,12.3,22.65,22.65,0,0,0-5.43,10.12A12.91,12.91,0,0,1,158.47,202.54Z"/><path class="cls-4" d="M156.35,263.31h-.51a24,24,0,0,1,0-47.9h.51a24,24,0,1,1,0,47.9Z"/><path class="cls-5" d="M312,336H1a1,1,0,0,1,0-2H312a1,1,0,0,1,0,2Z"/><circle class="cls-6" cx="278.42" cy="130" r="6.47"/><circle class="cls-6" cx="61.22" cy="160.17" r="6.47"/></svg>